<svg xmlns="http://www.w3.org/2000/svg" width="60" height="12" fill="none" viewBox="0 0 60 12">
  <path fill="#CFCFCF" d="M6.323.888a.75.75 0 0 0-.646 0 .8.8 0 0 0-.323.31c-.05.083-.102.189-.153.292L4.123 3.673l-2.411.353c-.114.016-.23.033-.325.056a.8.8 0 0 0-.394.211.75.75 0 0 0-.2.614.8.8 0 0 0 .196.403c.063.074.148.156.23.236l1.744 1.699-.412 2.399c-.02.113-.04.23-.047.326a.8.8 0 0 0 .079.441.75.75 0 0 0 .522.38.8.8 0 0 0 .444-.062 4 4 0 0 0 .296-.145L6 9.45l2.155 1.134c.102.053.206.108.296.145a.8.8 0 0 0 .444.062.75.75 0 0 0 .522-.38.8.8 0 0 0 .079-.441c-.008-.097-.028-.213-.047-.326l-.412-2.4 1.744-1.698c.082-.08.167-.162.23-.236a.8.8 0 0 0 .196-.403.75.75 0 0 0-.2-.614.8.8 0 0 0-.394-.211 4 4 0 0 0-.325-.056l-2.41-.353L6.798 1.49c-.05-.103-.103-.209-.153-.292a.8.8 0 0 0-.323-.31M18.323.888a.75.75 0 0 0-.646 0 .8.8 0 0 0-.323.31c-.05.083-.102.189-.153.292l-1.078 2.183-2.411.353c-.114.016-.23.033-.325.056a.8.8 0 0 0-.394.211.75.75 0 0 0-.2.614.8.8 0 0 0 .196.403c.063.074.148.156.23.236l1.744 1.699-.412 2.399c-.02.113-.04.23-.047.326a.8.8 0 0 0 .079.441.75.75 0 0 0 .522.38.8.8 0 0 0 .444-.062 4 4 0 0 0 .296-.145L18 9.45l2.155 1.134c.102.053.206.108.296.145a.8.8 0 0 0 .444.062.75.75 0 0 0 .522-.38.8.8 0 0 0 .079-.441c-.008-.097-.028-.213-.047-.326l-.412-2.4 1.744-1.698c.082-.08.167-.162.23-.236a.8.8 0 0 0 .195-.403.75.75 0 0 0-.199-.614.8.8 0 0 0-.394-.211 4 4 0 0 0-.325-.056l-2.41-.353-1.079-2.183c-.05-.103-.103-.209-.153-.292a.8.8 0 0 0-.323-.31M30.323.888a.75.75 0 0 0-.646 0 .8.8 0 0 0-.323.31c-.05.083-.102.189-.153.292l-1.078 2.183-2.411.353c-.114.016-.23.033-.325.056a.8.8 0 0 0-.394.211.75.75 0 0 0-.2.614.8.8 0 0 0 .196.403c.063.074.148.156.23.236l1.744 1.699-.412 2.399c-.02.113-.04.23-.047.326a.8.8 0 0 0 .079.441.75.75 0 0 0 .522.38.8.8 0 0 0 .444-.062 4 4 0 0 0 .296-.145L30 9.45l2.155 1.134c.102.053.206.108.296.145a.8.8 0 0 0 .444.062.75.75 0 0 0 .522-.38.8.8 0 0 0 .079-.441c-.008-.097-.028-.213-.047-.326l-.412-2.4 1.744-1.698c.082-.08.167-.162.23-.236a.8.8 0 0 0 .195-.403.75.75 0 0 0-.199-.614.8.8 0 0 0-.394-.211 4 4 0 0 0-.325-.056l-2.41-.353-1.079-2.183c-.05-.103-.103-.209-.153-.292a.8.8 0 0 0-.323-.31M42.323.888a.75.75 0 0 0-.646 0 .8.8 0 0 0-.323.31c-.05.083-.102.189-.153.292l-1.078 2.183-2.411.353c-.114.016-.23.033-.325.056a.8.8 0 0 0-.394.211.75.75 0 0 0-.2.614.8.8 0 0 0 .196.403c.063.074.148.156.23.236l1.744 1.699-.412 2.399c-.02.113-.04.23-.047.326a.8.8 0 0 0 .079.441.75.75 0 0 0 .522.38.8.8 0 0 0 .444-.062 4 4 0 0 0 .296-.145L42 9.45l2.155 1.134c.102.053.206.108.296.145a.8.8 0 0 0 .444.062.75.75 0 0 0 .522-.38.8.8 0 0 0 .079-.441c-.008-.097-.028-.213-.047-.326l-.412-2.4 1.744-1.698c.082-.08.167-.162.23-.236a.8.8 0 0 0 .195-.403.75.75 0 0 0-.199-.614.8.8 0 0 0-.394-.211 4 4 0 0 0-.325-.056l-2.41-.353-1.079-2.183c-.05-.103-.103-.209-.153-.292a.8.8 0 0 0-.323-.31M54.323.888a.75.75 0 0 0-.646 0 .8.8 0 0 0-.323.31c-.05.083-.102.189-.153.292l-1.078 2.183-2.411.353c-.114.016-.23.033-.325.056a.8.8 0 0 0-.394.211.75.75 0 0 0-.2.614.8.8 0 0 0 .196.403c.063.074.148.156.23.236l1.744 1.699-.412 2.399c-.02.113-.04.23-.047.326a.8.8 0 0 0 .079.441.75.75 0 0 0 .522.38.8.8 0 0 0 .444-.062 4 4 0 0 0 .296-.145L54 9.45l2.155 1.134c.102.053.206.108.296.145a.8.8 0 0 0 .444.062.75.75 0 0 0 .522-.38.8.8 0 0 0 .079-.441c-.008-.097-.028-.213-.047-.326l-.412-2.4 1.744-1.698c.082-.08.167-.162.23-.236a.8.8 0 0 0 .195-.403.75.75 0 0 0-.199-.614.8.8 0 0 0-.394-.211 4 4 0 0 0-.325-.056l-2.41-.353-1.079-2.183c-.05-.103-.103-.209-.153-.292a.8.8 0 0 0-.323-.31"/>
</svg>